<svg id="Layer_1" data-name="Layer 1" xmlns="http://www.w3.org/2000/svg" viewBox="0 0 250 100"><defs><style>.cls-1{isolation:isolate;font-size:78.66px;font-family:Subscribe-Regular, Subscribe;}.cls-1,.cls-2{fill:#3498db;}</style></defs><title>Artboard 1</title><text class="cls-1" transform="translate(2.76 66.29)">Holidaze</text><path class="cls-2" d="M71.31,80.75a5,5,0,0,1,.22,1.43c0,4.12-5.33,7.47-11.91,7.47S47.71,86.3,47.71,82.18a5,5,0,0,1,.22-1.43,7.15,7.15,0,0,0-1.72,4.52c0,5.11,6,9.24,13.41,9.24S73,90.38,73,85.27A7.12,7.12,0,0,0,71.31,80.75Z"/><path class="cls-2" d="M75.34,41.22s4.81,19.61-15.52,43c0,0-16.4-15.62-16.4-36.7,0,0,4.58-4.64,6.5,1.11s3.23,11.84,9.9,10.75,8.35-10,9.1-17S75.34,41.22,75.34,41.22Z"/></svg>